{"title":"The Lost World Jurassic Park(1997)MP-4[DaScubaDude]","uid":12357407,"size":1574565392,"categoryP":"video","categoryS":"movies","magnet":"?xt=urn:btih:33f8168b8f6ba5b0f450a4a1882fe70f2b1289d3&amp;dn=The+Lost+World+Jurassic+Park%281997%29MP-4%5BDaScubaDude%5D&amp;tr=udp%3A%2F%2Ftracker.openbittorrent.com%3A80&amp;tr=udp%3A%2F%2Fopen.demonii.com%3A1337&amp;tr=udp%3A%2F%2Ftracker.coppersurfer.tk%3A6969&amp;tr=udp%3A%2F%2Fexodus.desync.com%3A6969","seeders":5,"leechers":0,"uploader":"dascuba","files":1,"time":1441490672,"description":"The Lost World: Jurassic Park (1997)\nPG-13  |  129 min  |  Action, Adventure, Sci-Fi  |  23 May 1997 (USA)\n6.5 Your rating:   -/10   Ratings: 6.5/10 from 246,878 users   Metascore: 59/100 \nReviews: 541 user | 170 critic | 18 from Metacritic.com\nA research team is sent to the Jurassic Park Site B island to study the dinosaurs there while another team approaches with another agenda.\n\nDirector: Steven Spielberg\nWriters: Michael Crichton (novel), David Koepp (screenplay)\nStars: Jeff Goldblum, Julianne Moore, Pete Postlethwaite\n\nGeneral\nComplete name         : C:The Lost World Jurassic ParkJURASSIC_PARK_2_Title8.mp4\nFormat                                   : MPEG-4\nFormat profile                           : Base Media\nCodec ID                                 : isom\nFile size                                : 1.47 GiB\nDuration                                 : 2h 8mn\nOverall bit rate mode                    : Constant\nOverall bit rate                         : 1 631 Kbps\nMovie name                               : JURASSIC_PARK_2\nGenre                                    : Science_Fiction\nWriting application                      : Lavf54.6.100\n\nVideo\nID                                       : 1\nFormat                                   : MPEG-4 Visual\nFormat settings, BVOP                    : No\nFormat settings, QPel                    : No\nFormat settings, GMC                     : No warppoints\nFormat settings, Matrix                  : Default (H.263)\nCodec ID                                 : 20\nDuration                                 : 2h 8mn\nBit rate mode                            : Constant\nBit rate                                 : 1 498 Kbps\nWidth                                    : 720 pixels\nHeight                                   : 404 pixels\nDisplay aspect ratio                     : 16:9\nFrame rate mode                          : Constant\nFrame rate                               : 29.970 fps\nColor space                              : YUV\nChroma subsampling                       : 4:2:0\nBit depth                                : 8 bits\nScan type                                : Progressive\nCompression mode                         : Lossy\nBits/(Pixel*Frame)                       : 0.172\nStream size                              : 1.35 GiB (92%)\nWriting library                          : Lavc54.23.100\n\nAudio\nID                                       : 2\nFormat                                   : MPEG Audio\nFormat version                           : Version 1\nFormat profile                           : Layer 3\nCodec ID                                 : 6B\nDuration                                 : 2h 8mn\nBit rate mode                            : Constant\nBit rate                                 : 128 Kbps\nChannel(s)                               : 2 channels\nSampling rate                            : 44.1 KHz\nCompression mode                         : Lossy\nStream size                              : 118 MiB (8%)\nWriting library                          : LAME3.99.5","torrent":{"xt":"urn:btih:33f8168b8f6ba5b0f450a4a1882fe70f2b1289d3","amp;dn":"The+Lost+World+Jurassic+Park%281997%29MP-4%5BDaScubaDude%5D","amp;tr":["udp%3A%2F%2Ftracker.openbittorrent.com%3A80","udp%3A%2F%2Fopen.demonii.com%3A1337","udp%3A%2F%2Ftracker.coppersurfer.tk%3A6969","udp%3A%2F%2Fexodus.desync.com%3A6969"],"infoHash":"33f8168b8f6ba5b0f450a4a1882fe70f2b1289d3","infoHashBuffer":{"type":"Buffer","data":[51,248,22,139,143,107,165,176,244,80,164,161,136,47,231,15,43,18,137,211]},"announce":[],"urlList":[]}}